<?xml version="1.0" standalone="no"?>
<!DOCTYPE svg PUBLIC "-//W3C//DTD SVG 20010904//EN"
 "http://www.w3.org/TR/2001/REC-SVG-20010904/DTD/svg10.dtd">
<svg version="1.0" xmlns="http://www.w3.org/2000/svg"
 width="700.000000pt" height="700.000000pt" viewBox="0 0 700.000000 700.000000"
 preserveAspectRatio="xMidYMid meet">
<metadata>
Created by potrace 1.11, written by Peter Selinger 2001-2013
</metadata>
<g transform="translate(0.000000,700.000000) scale(0.100000,-0.100000)"
fill="#000000" stroke="none">
<path d="M170 6860 l0 -140 265 0 265 0 0 140 0 140 -265 0 -265 0 0 -140z"/>
<path d="M870 6860 l0 -140 265 0 265 0 0 140 0 140 -265 0 -265 0 0 -140z"/>
<path d="M1580 6860 l0 -140 260 0 260 0 0 140 0 140 -260 0 -260 0 0 -140z"/>
<path d="M2270 6860 l0 -140 265 0 265 0 0 140 0 140 -265 0 -265 0 0 -140z"/>
<path d="M2970 6860 l0 -140 265 0 265 0 0 140 0 140 -265 0 -265 0 0 -140z"/>
<path d="M4370 6860 l0 -140 265 0 265 0 0 140 0 140 -265 0 -265 0 0 -140z"/>
<path d="M5070 6860 l0 -140 265 0 265 0 0 140 0 140 -265 0 -265 0 0 -140z"/>
<path d="M5780 6860 l0 -140 260 0 260 0 0 140 0 140 -260 0 -260 0 0 -140z"/>
<path d="M6470 6860 l0 -140 265 0 265 0 0 140 0 140 -265 0 -265 0 0 -140z"/>
<path d="M2823 6698 l-61 -63 57 -62 c31 -35 61 -63 67 -63 5 0 36 27 69 60
l60 60 -65 65 -65 65 -62 -62z"/>
<path d="M4923 6698 l-62 -63 59 -62 c33 -35 63 -63 68 -63 4 0 34 27 67 60
l60 60 -65 65 -65 65 -62 -62z"/>
<path d="M42 6707 c-59 -60 -58 -97 3 -157 l45 -44 62 62 63 62 -60 60 c-33
33 -62 60 -65 60 -3 0 -25 -19 -48 -43z"/>
<path d="M725 6690 l-60 -60 63 -63 62 -62 62 62 63 63 -60 60 c-33 33 -62 60
-65 60 -3 0 -32 -27 -65 -60z"/>
<path d="M1425 6690 l-60 -60 63 -63 62 -62 62 62 63 63 -60 60 c-33 33 -62
60 -65 60 -3 0 -32 -27 -65 -60z"/>
<path d="M2125 6690 l-60 -60 63 -63 62 -62 62 62 63 63 -60 60 c-33 33 -62
60 -65 60 -3 0 -32 -27 -65 -60z"/>
<path d="M5625 6690 l-60 -60 63 -63 62 -62 62 62 63 63 -60 60 c-33 33 -62
60 -65 60 -3 0 -32 -27 -65 -60z"/>
<path d="M6325 6690 l-60 -60 63 -63 62 -62 62 62 63 63 -60 60 c-33 33 -62
60 -65 60 -3 0 -32 -27 -65 -60z"/>
<path d="M6980 6644 c-11 -12 -10 -18 3 -32 16 -15 17 -14 17 16 0 36 -2 38
-20 16z"/>
<path d="M177 6543 c-4 -3 -7 -123 -7 -265 l0 -258 265 0 265 0 0 265 0 265
-258 0 c-142 0 -262 -3 -265 -7z"/>
<path d="M1577 6543 c-4 -3 -7 -123 -7 -265 l0 -258 265 0 265 0 0 265 0 265
-258 0 c-142 0 -262 -3 -265 -7z"/>
<path d="M2270 6285 l0 -265 265 0 265 0 0 265 0 265 -265 0 -265 0 0 -265z"/>
<path d="M3677 6543 c-4 -3 -7 -123 -7 -265 l0 -258 265 0 265 0 0 265 0 265
-258 0 c-142 0 -262 -3 -265 -7z"/>
<path d="M5070 6285 l0 -265 265 0 265 0 0 265 0 265 -265 0 -265 0 0 -265z"/>
<path d="M5777 6543 c-4 -3 -7 -123 -7 -265 l0 -258 265 0 265 0 0 265 0 265
-258 0 c-142 0 -262 -3 -265 -7z"/>
<path d="M880 6280 l0 -260 260 0 260 0 0 260 0 260 -260 0 -260 0 0 -260z"/>
<path d="M6480 6280 l0 -260 260 0 260 0 0 260 0 260 -260 0 -260 0 0 -260z"/>
<path d="M2120 5995 l-64 -65 59 -60 c33 -33 64 -60 70 -60 19 0 128 118 122
132 -3 8 -32 37 -64 66 l-60 51 -63 -64z"/>
<path d="M5619 5994 l-63 -64 59 -60 c33 -33 64 -60 70 -60 13 0 125 112 125
125 0 6 -29 36 -64 67 l-63 57 -64 -65z"/>
<path d="M42 6007 c-59 -60 -58 -97 3 -157 l45 -44 62 62 63 62 -60 60 c-33
33 -62 60 -65 60 -3 0 -25 -19 -48 -43z"/>
<path d="M725 5990 l-60 -60 63 -63 62 -62 62 62 63 63 -60 60 c-33 33 -62 60
-65 60 -3 0 -32 -27 -65 -60z"/>
<path d="M1425 5990 l-60 -60 63 -63 62 -62 62 62 63 63 -60 60 c-33 33 -62
60 -65 60 -3 0 -32 -27 -65 -60z"/>
<path d="M3525 5990 l-60 -60 63 -63 62 -62 62 62 63 63 -60 60 c-33 33 -62
60 -65 60 -3 0 -32 -27 -65 -60z"/>
<path d="M4225 5990 l-60 -60 63 -63 62 -62 62 62 63 63 -60 60 c-33 33 -62
60 -65 60 -3 0 -32 -27 -65 -60z"/>
<path d="M6325 5990 l-60 -60 63 -63 62 -62 62 62 63 63 -60 60 c-33 33 -62
60 -65 60 -3 0 -32 -27 -65 -60z"/>
<path d="M6980 5944 c-11 -12 -10 -18 3 -32 16 -15 17 -14 17 16 0 36 -2 38
-20 16z"/>
<path d="M877 5843 c-4 -3 -7 -123 -7 -265 l0 -258 265 0 265 0 0 265 0 265
-258 0 c-142 0 -262 -3 -265 -7z"/>
<path d="M1570 5585 l0 -265 265 0 265 0 0 265 0 265 -265 0 -265 0 0 -265z"/>
<path d="M2970 5585 l0 -265 265 0 265 0 0 265 0 265 -265 0 -265 0 0 -265z"/>
<path d="M4370 5585 l0 -265 265 0 265 0 0 265 0 265 -265 0 -265 0 0 -265z"/>
<path d="M5770 5585 l0 -265 265 0 265 0 0 265 0 265 -265 0 -265 0 0 -265z"/>
<path d="M6477 5843 c-4 -3 -7 -123 -7 -265 l0 -258 265 0 265 0 0 265 0 265
-258 0 c-142 0 -262 -3 -265 -7z"/>
<path d="M180 5596 c0 -134 -3 -251 -6 -260 -6 -14 21 -16 260 -16 l266 0 0
260 0 260 -260 0 -260 0 0 -244z"/>
<path d="M3680 5580 l0 -260 260 0 260 0 0 260 0 260 -260 0 -260 0 0 -260z"/>
<path d="M1420 5295 l-64 -65 59 -60 c33 -33 64 -60 70 -60 13 0 125 112 125
126 0 10 -111 124 -121 124 -2 0 -34 -29 -69 -65z"/>
<path d="M6320 5295 l-64 -65 59 -60 c33 -33 64 -60 70 -60 13 0 125 112 125
126 0 10 -111 124 -121 124 -2 0 -34 -29 -69 -65z"/>
<path d="M42 5307 c-59 -60 -58 -97 3 -157 l45 -44 62 62 63 62 -60 60 c-33
33 -62 60 -65 60 -3 0 -25 -19 -48 -43z"/>
<path d="M725 5290 l-60 -60 63 -63 62 -62 62 62 63 63 -60 60 c-33 33 -62 60
-65 60 -3 0 -32 -27 -65 -60z"/>
<path d="M2825 5290 l-60 -60 63 -63 62 -62 62 62 63 63 -60 60 c-33 33 -62
60 -65 60 -3 0 -32 -27 -65 -60z"/>
<path d="M3525 5290 l-60 -60 63 -63 62 -62 62 62 63 63 -60 60 c-33 33 -62
60 -65 60 -3 0 -32 -27 -65 -60z"/>
<path d="M4225 5290 l-60 -60 63 -63 62 -62 62 62 63 63 -60 60 c-33 33 -62
60 -65 60 -3 0 -32 -27 -65 -60z"/>
<path d="M4925 5290 l-60 -60 63 -63 62 -62 62 62 63 63 -60 60 c-33 33 -62
60 -65 60 -3 0 -32 -27 -65 -60z"/>
<path d="M6980 5244 c-11 -12 -10 -18 3 -32 16 -15 17 -14 17 16 0 36 -2 38
-20 16z"/>
<path d="M177 5143 c-4 -3 -7 -123 -7 -265 l0 -258 265 0 265 0 0 265 0 265
-258 0 c-142 0 -262 -3 -265 -7z"/>
<path d="M870 4885 l0 -265 265 0 265 0 0 265 0 265 -265 0 -265 0 0 -265z"/>
<path d="M2270 4885 l0 -265 265 0 265 0 0 265 0 265 -265 0 -265 0 0 -265z"/>
<path d="M2977 5143 c-4 -3 -7 -123 -7 -265 l0 -258 265 0 265 0 0 265 0 265
-258 0 c-142 0 -262 -3 -265 -7z"/>
<path d="M3677 5143 c-4 -3 -7 -123 -7 -265 l0 -258 265 0 265 0 0 265 0 265
-258 0 c-142 0 -262 -3 -265 -7z"/>
<path d="M4377 5143 c-4 -3 -7 -123 -7 -265 l0 -258 265 0 265 0 0 265 0 265
-258 0 c-142 0 -262 -3 -265 -7z"/>
<path d="M5070 4885 l0 -265 265 0 265 0 0 265 0 265 -265 0 -265 0 0 -265z"/>
<path d="M6470 4885 l0 -265 265 0 265 0 0 265 0 265 -265 0 -265 0 0 -265z"/>
<path d="M42 4617 c-37 -37 -42 -48 -42 -87 0 -39 5 -50 42 -87 l42 -43 63 62
c35 34 63 67 63 73 0 10 -111 125 -121 125 -3 0 -24 -19 -47 -43z"/>
<path d="M720 4595 l-64 -65 64 -65 64 -65 63 62 c35 34 63 67 63 73 0 10
-111 125 -121 125 -2 0 -34 -29 -69 -65z"/>
<path d="M2125 4590 l-60 -60 63 -63 62 -62 62 62 63 63 -60 60 c-33 33 -62
60 -65 60 -3 0 -32 -27 -65 -60z"/>
<path d="M2825 4590 l-60 -60 63 -63 62 -62 62 62 63 63 -60 60 c-33 33 -62
60 -65 60 -3 0 -32 -27 -65 -60z"/>
<path d="M3525 4590 l-60 -60 63 -63 62 -62 62 62 63 63 -60 60 c-33 33 -62
60 -65 60 -3 0 -32 -27 -65 -60z"/>
<path d="M4225 4590 l-60 -60 63 -63 62 -62 62 62 63 63 -60 60 c-33 33 -62
60 -65 60 -3 0 -32 -27 -65 -60z"/>
<path d="M4925 4590 l-60 -60 63 -63 62 -62 62 62 63 63 -60 60 c-33 33 -62
60 -65 60 -3 0 -32 -27 -65 -60z"/>
<path d="M5625 4590 l-60 -60 63 -63 62 -62 62 62 63 63 -60 60 c-33 33 -62
60 -65 60 -3 0 -32 -27 -65 -60z"/>
<path d="M6975 4550 c-18 -20 -18 -21 3 -43 l22 -21 0 42 c0 23 -2 42 -3 42
-2 0 -12 -9 -22 -20z"/>
<path d="M170 4185 l0 -265 265 0 265 0 0 265 0 265 -265 0 -265 0 0 -265z"/>
<path d="M1570 4185 l0 -265 265 0 265 0 0 265 0 265 -265 0 -265 0 0 -265z"/>
<path d="M2277 4443 c-4 -3 -7 -123 -7 -265 l0 -258 265 0 265 0 0 265 0 265
-258 0 c-142 0 -262 -3 -265 -7z"/>
<path d="M2977 4443 c-4 -3 -7 -123 -7 -265 l0 -258 265 0 265 0 0 265 0 265
-258 0 c-142 0 -262 -3 -265 -7z"/>
<path d="M3670 4185 l0 -265 265 0 265 0 0 265 0 265 -265 0 -265 0 0 -265z"/>
<path d="M4377 4443 c-4 -3 -7 -123 -7 -265 l0 -258 265 0 265 0 0 265 0 265
-258 0 c-142 0 -262 -3 -265 -7z"/>
<path d="M5077 4443 c-4 -3 -7 -123 -7 -265 l0 -258 265 0 265 0 0 265 0 265
-258 0 c-142 0 -262 -3 -265 -7z"/>
<path d="M5770 4185 l0 -265 265 0 265 0 0 265 0 265 -265 0 -265 0 0 -265z"/>
<path d="M3520 3895 l-64 -65 64 -65 64 -65 68 67 68 67 -62 63 c-34 35 -65
63 -68 63 -3 0 -35 -29 -70 -65z"/>
<path d="M4220 3895 l-64 -65 64 -65 64 -65 68 67 68 67 -62 63 c-34 35 -65
63 -68 63 -3 0 -35 -29 -70 -65z"/>
<path d="M1422 3897 c-29 -29 -52 -57 -52 -63 0 -5 27 -36 60 -69 l60 -60 62
63 63 62 -60 60 c-33 33 -64 60 -70 60 -6 0 -34 -24 -63 -53z"/>
<path d="M2125 3890 l-60 -60 63 -63 62 -62 62 62 63 63 -60 60 c-33 33 -62
60 -65 60 -3 0 -32 -27 -65 -60z"/>
<path d="M2825 3890 l-60 -60 63 -63 62 -62 62 62 63 63 -60 60 c-33 33 -62
60 -65 60 -3 0 -32 -27 -65 -60z"/>
<path d="M4925 3890 l-60 -60 63 -63 62 -62 62 62 63 63 -60 60 c-33 33 -62
60 -65 60 -3 0 -32 -27 -65 -60z"/>
<path d="M5625 3890 l-60 -60 63 -63 62 -62 62 62 63 63 -60 60 c-33 33 -62
60 -65 60 -3 0 -32 -27 -65 -60z"/>
<path d="M6322 3897 c-29 -29 -52 -57 -52 -63 0 -5 27 -36 60 -69 l60 -60 62
63 63 62 -60 60 c-33 33 -64 60 -70 60 -6 0 -34 -24 -63 -53z"/>
<path d="M870 3485 l0 -265 265 0 265 0 0 265 0 265 -265 0 -265 0 0 -265z"/>
<path d="M1577 3743 c-4 -3 -7 -123 -7 -265 l0 -258 265 0 265 0 0 265 0 265
-258 0 c-142 0 -262 -3 -265 -7z"/>
<path d="M2270 3485 l0 -265 265 0 265 0 0 265 0 265 -265 0 -265 0 0 -265z"/>
<path d="M2970 3485 l0 -265 265 0 265 0 0 265 0 265 -265 0 -265 0 0 -265z"/>
<path d="M3670 3485 l0 -265 265 0 265 0 0 265 0 265 -265 0 -265 0 0 -265z"/>
<path d="M4370 3485 l0 -265 265 0 265 0 0 265 0 265 -265 0 -265 0 0 -265z"/>
<path d="M5070 3485 l0 -265 265 0 265 0 0 265 0 265 -265 0 -265 0 0 -265z"/>
<path d="M5777 3743 c-4 -3 -7 -123 -7 -265 l0 -258 265 0 265 0 0 265 0 265
-258 0 c-142 0 -262 -3 -265 -7z"/>
<path d="M6470 3485 l0 -265 265 0 265 0 0 265 0 265 -265 0 -265 0 0 -265z"/>
<path d="M1422 3197 l-62 -63 65 -64 65 -65 62 63 63 62 -65 65 -65 65 -63
-63z"/>
<path d="M3520 3195 l-64 -65 64 -65 64 -65 68 67 68 67 -62 63 c-34 35 -65
63 -68 63 -3 0 -35 -29 -70 -65z"/>
<path d="M4220 3195 l-64 -65 64 -65 64 -65 68 67 68 67 -62 63 c-34 35 -65
63 -68 63 -3 0 -35 -29 -70 -65z"/>
<path d="M6322 3197 l-62 -63 65 -64 65 -65 62 63 63 62 -65 65 -65 65 -63
-63z"/>
<path d="M2125 3190 l-60 -60 63 -63 62 -62 62 62 63 63 -60 60 c-33 33 -62
60 -65 60 -3 0 -32 -27 -65 -60z"/>
<path d="M2825 3190 l-60 -60 63 -63 62 -62 62 62 63 63 -60 60 c-33 33 -62
60 -65 60 -3 0 -32 -27 -65 -60z"/>
<path d="M4925 3190 l-60 -60 63 -63 62 -62 62 62 63 63 -60 60 c-33 33 -62
60 -65 60 -3 0 -32 -27 -65 -60z"/>
<path d="M5625 3190 l-60 -60 63 -63 62 -62 62 62 63 63 -60 60 c-33 33 -62
60 -65 60 -3 0 -32 -27 -65 -60z"/>
<path d="M170 2785 l0 -265 265 0 265 0 0 265 0 265 -265 0 -265 0 0 -265z"/>
<path d="M1570 2785 l0 -265 265 0 265 0 0 265 0 265 -265 0 -265 0 0 -265z"/>
<path d="M2277 3043 c-4 -3 -7 -123 -7 -265 l0 -258 265 0 265 0 0 265 0 265
-258 0 c-142 0 -262 -3 -265 -7z"/>
<path d="M2970 2785 l0 -265 265 0 265 0 0 265 0 265 -265 0 -265 0 0 -265z"/>
<path d="M3670 2785 l0 -265 265 0 265 0 0 265 0 265 -265 0 -265 0 0 -265z"/>
<path d="M4370 2785 l0 -265 265 0 265 0 0 265 0 265 -265 0 -265 0 0 -265z"/>
<path d="M5077 3043 c-4 -3 -7 -123 -7 -265 l0 -258 265 0 265 0 0 265 0 265
-258 0 c-142 0 -262 -3 -265 -7z"/>
<path d="M5770 2785 l0 -265 265 0 265 0 0 265 0 265 -265 0 -265 0 0 -265z"/>
<path d="M42 2517 c-37 -37 -42 -48 -42 -87 0 -39 5 -50 42 -87 l42 -43 68 67
68 67 -62 63 c-34 35 -65 63 -68 63 -3 0 -25 -19 -48 -43z"/>
<path d="M720 2495 l-64 -65 64 -65 64 -65 68 67 68 67 -62 63 c-34 35 -65 63
-68 63 -3 0 -35 -29 -70 -65z"/>
<path d="M2122 2497 l-62 -63 65 -64 65 -65 62 63 63 62 -65 65 -65 65 -63
-63z"/>
<path d="M5622 2497 l-62 -63 65 -64 65 -65 62 63 63 62 -65 65 -65 65 -63
-63z"/>
<path d="M2825 2490 l-60 -60 63 -63 62 -62 62 62 63 63 -60 60 c-33 33 -62
60 -65 60 -3 0 -32 -27 -65 -60z"/>
<path d="M3522 2497 c-29 -29 -52 -57 -52 -63 0 -5 27 -36 60 -69 l60 -60 62
63 63 62 -60 60 c-33 33 -64 60 -70 60 -6 0 -34 -24 -63 -53z"/>
<path d="M4222 2497 c-29 -29 -52 -57 -52 -63 0 -5 27 -36 60 -69 l60 -60 62
63 63 62 -60 60 c-33 33 -64 60 -70 60 -6 0 -34 -24 -63 -53z"/>
<path d="M4925 2490 l-60 -60 63 -63 62 -62 62 62 63 63 -60 60 c-33 33 -62
60 -65 60 -3 0 -32 -27 -65 -60z"/>
<path d="M6975 2450 c-18 -20 -18 -21 3 -43 l22 -21 0 42 c0 23 -2 42 -3 42
-2 0 -12 -9 -22 -20z"/>
<path d="M170 2085 l0 -265 265 0 265 0 0 265 0 265 -265 0 -265 0 0 -265z"/>
<path d="M870 2085 l0 -265 265 0 265 0 0 265 0 265 -265 0 -265 0 0 -265z"/>
<path d="M2270 2085 l0 -265 265 0 265 0 0 265 0 265 -265 0 -265 0 0 -265z"/>
<path d="M2977 2343 c-4 -3 -7 -123 -7 -265 l0 -258 265 0 265 0 0 265 0 265
-258 0 c-142 0 -262 -3 -265 -7z"/>
<path d="M3670 2085 l0 -265 265 0 265 0 0 265 0 265 -265 0 -265 0 0 -265z"/>
<path d="M4377 2343 c-4 -3 -7 -123 -7 -265 l0 -258 265 0 265 0 0 265 0 265
-258 0 c-142 0 -262 -3 -265 -7z"/>
<path d="M5070 2085 l0 -265 265 0 265 0 0 265 0 265 -265 0 -265 0 0 -265z"/>
<path d="M6470 2085 l0 -265 265 0 265 0 0 265 0 265 -265 0 -265 0 0 -265z"/>
<path d="M42 1817 c-35 -36 -42 -49 -42 -83 0 -34 7 -46 45 -84 l45 -44 63 62
62 62 -65 65 -66 65 -42 -43z"/>
<path d="M722 1797 l-62 -63 65 -64 65 -65 62 63 63 62 -65 65 -65 65 -63 -63z"/>
<path d="M1420 1795 l-64 -65 64 -65 64 -65 68 67 68 67 -62 63 c-34 35 -65
63 -68 63 -3 0 -35 -29 -70 -65z"/>
<path d="M2822 1797 l-62 -63 65 -64 65 -65 62 63 63 62 -65 65 -65 65 -63
-63z"/>
<path d="M4922 1797 l-62 -63 65 -64 65 -65 62 63 63 62 -65 65 -65 65 -63
-63z"/>
<path d="M6320 1795 l-64 -65 64 -65 64 -65 68 67 68 67 -62 63 c-34 35 -65
63 -68 63 -3 0 -35 -29 -70 -65z"/>
<path d="M3525 1790 l-60 -60 63 -63 62 -62 62 62 63 63 -60 60 c-33 33 -62
60 -65 60 -3 0 -32 -27 -65 -60z"/>
<path d="M4225 1790 l-60 -60 63 -63 62 -62 62 62 63 63 -60 60 c-33 33 -62
60 -65 60 -3 0 -32 -27 -65 -60z"/>
<path d="M6976 1752 c-15 -18 -15 -20 4 -37 20 -18 20 -18 20 18 0 43 -1 43
-24 19z"/>
<path d="M170 1385 l0 -265 265 0 265 0 0 265 0 265 -265 0 -265 0 0 -265z"/>
<path d="M870 1385 l0 -265 265 0 265 0 0 265 0 265 -265 0 -265 0 0 -265z"/>
<path d="M1570 1385 l0 -265 265 0 265 0 0 265 0 265 -265 0 -265 0 0 -265z"/>
<path d="M2970 1385 l0 -265 265 0 265 0 0 265 0 265 -265 0 -265 0 0 -265z"/>
<path d="M3677 1643 c-4 -3 -7 -123 -7 -265 l0 -258 265 0 265 0 0 265 0 265
-258 0 c-142 0 -262 -3 -265 -7z"/>
<path d="M4370 1385 l0 -265 265 0 265 0 0 265 0 265 -265 0 -265 0 0 -265z"/>
<path d="M5770 1385 l0 -265 265 0 265 0 0 265 0 265 -265 0 -265 0 0 -265z"/>
<path d="M6470 1385 l0 -265 265 0 265 0 0 265 0 265 -265 0 -265 0 0 -265z"/>
<path d="M1422 1097 l-62 -63 65 -64 65 -65 62 63 63 62 -65 65 -65 65 -63
-63z"/>
<path d="M2120 1095 l-64 -65 64 -65 64 -65 68 67 68 67 -62 63 c-34 35 -65
63 -68 63 -3 0 -35 -29 -70 -65z"/>
<path d="M3522 1097 l-62 -63 65 -64 65 -65 62 63 63 62 -65 65 -65 65 -63
-63z"/>
<path d="M4222 1097 l-62 -63 65 -64 65 -65 62 63 63 62 -65 65 -65 65 -63
-63z"/>
<path d="M5620 1095 l-64 -65 64 -65 64 -65 68 67 68 67 -62 63 c-34 35 -65
63 -68 63 -3 0 -35 -29 -70 -65z"/>
<path d="M6322 1097 l-62 -63 65 -64 65 -65 62 63 63 62 -65 65 -65 65 -63
-63z"/>
<path d="M42 1107 c-59 -60 -58 -97 3 -157 l45 -44 62 62 63 62 -60 60 c-33
33 -62 60 -65 60 -3 0 -25 -19 -48 -43z"/>
<path d="M725 1090 l-60 -60 63 -63 62 -62 62 62 63 63 -60 60 c-33 33 -62 60
-65 60 -3 0 -32 -27 -65 -60z"/>
<path d="M6980 1044 c-11 -12 -10 -18 3 -32 16 -15 17 -14 17 16 0 36 -2 38
-20 16z"/>
<path d="M170 685 l0 -265 265 0 265 0 0 265 0 265 -265 0 -265 0 0 -265z"/>
<path d="M870 685 l0 -265 265 0 265 0 0 265 0 265 -265 0 -265 0 0 -265z"/>
<path d="M1570 685 l0 -265 265 0 265 0 0 265 0 265 -265 0 -265 0 0 -265z"/>
<path d="M2270 685 l0 -265 265 0 265 0 0 265 0 265 -265 0 -265 0 0 -265z"/>
<path d="M3670 685 l0 -265 265 0 265 0 0 265 0 265 -265 0 -265 0 0 -265z"/>
<path d="M5070 685 l0 -265 265 0 265 0 0 265 0 265 -265 0 -265 0 0 -265z"/>
<path d="M5770 685 l0 -265 265 0 265 0 0 265 0 265 -265 0 -265 0 0 -265z"/>
<path d="M6470 685 l0 -265 265 0 265 0 0 265 0 265 -265 0 -265 0 0 -265z"/>
<path d="M42 417 c-35 -36 -42 -49 -42 -83 0 -34 7 -46 45 -84 l45 -44 63 62
62 62 -65 65 -66 65 -42 -43z"/>
<path d="M722 397 l-62 -63 65 -64 65 -65 62 63 63 62 -65 65 -65 65 -63 -63z"/>
<path d="M2122 397 l-62 -63 65 -64 65 -65 62 63 63 62 -65 65 -65 65 -63 -63z"/>
<path d="M2820 395 l-64 -65 64 -65 64 -65 68 67 68 67 -62 63 c-34 35 -65 63
-68 63 -3 0 -35 -29 -70 -65z"/>
<path d="M4920 395 l-64 -65 64 -65 64 -65 68 67 68 67 -62 63 c-34 35 -65 63
-68 63 -3 0 -35 -29 -70 -65z"/>
<path d="M5622 397 l-62 -63 65 -64 65 -65 62 63 63 62 -65 65 -65 65 -63 -63z"/>
<path d="M1427 399 c-31 -28 -57 -56 -57 -63 0 -6 27 -38 60 -71 l60 -60 62
63 63 62 -60 60 c-33 33 -62 60 -65 60 -3 0 -32 -23 -63 -51z"/>
<path d="M6328 396 c-32 -29 -58 -57 -58 -62 0 -5 27 -36 60 -69 l60 -60 62
63 63 62 -60 60 c-33 33 -62 60 -65 60 -3 -1 -31 -25 -62 -54z"/>
<path d="M6976 352 c-15 -18 -15 -20 4 -37 20 -18 20 -18 20 18 0 43 -1 43
-24 19z"/>
<path d="M170 125 l0 -125 265 0 265 0 0 125 0 125 -265 0 -265 0 0 -125z"/>
<path d="M870 125 l0 -125 265 0 265 0 0 125 0 125 -265 0 -265 0 0 -125z"/>
<path d="M1570 125 l0 -125 265 0 265 0 0 125 0 125 -265 0 -265 0 0 -125z"/>
<path d="M2270 125 l0 -125 265 0 265 0 0 125 0 125 -265 0 -265 0 0 -125z"/>
<path d="M2970 125 l0 -125 265 0 265 0 0 125 0 125 -265 0 -265 0 0 -125z"/>
<path d="M4370 125 l0 -125 265 0 265 0 0 125 0 125 -265 0 -265 0 0 -125z"/>
<path d="M5070 125 l0 -125 265 0 265 0 0 125 0 125 -265 0 -265 0 0 -125z"/>
<path d="M5770 125 l0 -125 265 0 265 0 0 125 0 125 -265 0 -265 0 0 -125z"/>
<path d="M6470 125 l0 -125 265 0 265 0 0 125 0 125 -265 0 -265 0 0 -125z"/>
</g>
</svg>
