<svg xmlns="http://www.w3.org/2000/svg" width="200" height="200">
  <title>
    Some Sun (http://www.colourlovers.com/pattern/1228921/Some_Sun)
  </title>

  <style>
   #background {
     fill: #000;
   }

   #inner,
   #innerMiddle,
   #outerMiddle,
   #outer,
   #alternateInner,
   #alternateInnerMiddle,
   #alternateOuterMiddle,
   #alternateOuter {
     fill: #444;
   }

   #inner,
   #innerMiddle,
   #alternateOuterMiddle,
   #alternateOuter {
     fill: #222;
   }

   #joiner {
     #000;
   }
  </style>

  <g fill="none" fill-rule="evenodd">
    <path id="background" d="M0 0h200v200H0z" />

    <g id="inner">
      <path d="M85 93h15v15H85zM105 93h15v15h-15zM125 93h15v15h-15zM105 73h15v15h-15zM105 113h15v15h-15zM102.536 87l3.535 3.536-3.534 3.536L99 90.536zM122.536 87l3.535 3.536-3.534 3.536L119 90.536zM102.536 107l3.535 3.536-3.534 3.536L99 110.536zM122.536 107l3.535 3.536-3.534 3.536-3.536-3.536z"/>
    </g>
    <g id="innerMiddle">
      <path d="M65 93h15v15H65zM145 93h15v15h-15zM85 73h15v15H85zM125 73h15v15h-15zM105 53h15v15h-15zM85 113h15v15H85zM125 113h15v15h-15zM105 133h15v15h-15zM82.536 87l3.535 3.536-3.534 3.536L79 90.536zM142.536 87l3.535 3.536-3.534 3.536L139 90.536zM82.536 107l3.535 3.536-3.534 3.536L79 110.536zM142.536 107l3.535 3.536-3.534 3.536-3.536-3.536zM102.536 127l3.535 3.536-3.534 3.536L99 130.536zM122.536 127l3.535 3.536-3.534 3.536-3.536-3.536zM102.536 67l3.535 3.536-3.534 3.536L99 70.536zM122.536 67l3.535 3.536-3.534 3.536L119 70.536z"/>
    </g>
    <g id="outerMiddle">
      <path d="M162.536 107l3.535 3.536-3.534 3.536-3.536-3.536zM65 113h15v15H65zM145 113h15v15h-15zM85 133h15v15H85zM125 133h15v15h-15zM105 153h15v15h-15zM62.536 107l3.535 3.536-3.534 3.536L59 110.536zM82.536 127l3.535 3.536-3.534 3.536L79 130.536zM142.536 127l3.535 3.536-3.534 3.536-3.536-3.536zM102.536 147l3.535 3.536-3.534 3.536L99 150.536zM122.536 147l3.535 3.536-3.534 3.536-3.536-3.536zM45 93h15v15H45zM65 73h15v15H65zM85 53h15v15H85zM105 33h15v15h-15zM62.536 87l3.535 3.536-3.534 3.536L59 90.536zM82.536 67l3.535 3.536-3.534 3.536L79 70.536zM102.536 47l3.535 3.536-3.534 3.536L99 50.536zM165 93h15v15h-15zM145 73h15v15h-15zM125 53h15v15h-15zM162.536 87l3.535 3.536-3.534 3.536L159 90.536zM142.536 67l3.535 3.536-3.534 3.536L139 70.536zM122.536 47l3.535 3.536-3.534 3.536L119 50.536z"/>
    </g>
    <g id="outer">
      <path d="M185 93h15v15h-15zM165 113h15v15h-15zM65 133h15v15H65zM145 133h15v15h-15zM85 153h15v15H85zM125 153h15v15h-15zM105 173h15v15h-15zM182.536 87l3.535 3.536-3.534 3.536L179 90.536zM182.536 107l3.535 3.536-3.534 3.536-3.536-3.536zM62.536 127l3.535 3.536-3.534 3.536L59 130.536zM162.536 127l3.535 3.536-3.534 3.536-3.536-3.536zM82.536 147l3.535 3.536-3.534 3.536L79 150.536zM142.536 147l3.535 3.536-3.534 3.536-3.536-3.536zM102.536 167l3.535 3.536-3.534 3.536L99 170.536zM122.536 167l3.535 3.536-3.534 3.536-3.536-3.536zM25 93h15v15H25zM45 73h15v15H45zM45 113h15v15H45zM42.536 87l3.535 3.536-3.534 3.536L39 90.536zM42.536 107l3.535 3.536-3.534 3.536L39 110.536zM65 53h15v15H65zM85 33h15v15H85zM105 13h15v15h-15zM62.536 67l3.535 3.536-3.534 3.536L59 70.536zM82.536 47l3.535 3.536-3.534 3.536L79 50.536zM102.536 27l3.535 3.536-3.534 3.536L99 30.536zM165 73h15v15h-15zM145 53h15v15h-15zM125 33h15v15h-15zM162.536 67l3.535 3.536-3.534 3.536L159 70.536zM142.536 47l3.535 3.536-3.534 3.536L139 50.536zM122.536 27l3.535 3.536-3.534 3.536L119 30.536z"/>
    </g>
    <g id="alternateInner">
      <path d="M185 193h15v7h-15zM200.035 191.57L199 190.534l1.035-1.035M185 0h15v8h-15zM200.035 11.57L199 10.534l1.035-1.035M5 0h15v8H5zM25 0h15v8H25zM5 13h15v15H5zM2.536 7l3.535 3.536-3.534 3.535L.01 11.546.004 9.53M22.536 7l3.535 3.536-3.534 3.536L19 10.536zM5 193h15v7H5zM25 193h15v7H25zM5 173h15v15H5zM22.536 187l3.535 3.536-3.534 3.536L19 190.536zM2.536 187l3.535 3.536-3.534 3.535-2.527-2.525-.005-2.014"/>
    </g>
    <g id="joiner">
      <path d="M5 93h15v15H5zM2.536 107l3.535 3.536-3.534 3.535-2.527-2.525-.005-2.014M2.536 87l3.535 3.536-3.534 3.535L.01 91.546.004 89.53M105 0h15v8h-15zM105 193h15v7h-15zM22.536 87l3.535 3.536-3.534 3.536L19 90.536zM22.536 107l3.535 3.536-3.534 3.536L19 110.536zM200.035 112.07L199 111.034l1.035-1.035M200.035 91.57L199 90.534l1.035-1.035M102.536 187l3.535 3.536-3.534 3.536L99 190.536zM122.536 187l3.535 3.536-3.534 3.536-3.536-3.536zM102.536 7l3.535 3.536-3.534 3.536L99 10.536zM122.536 7l3.535 3.536-3.534 3.536L119 10.536z"/>
    </g>
    <g id="alternateOuter">
      <path d="M65 13h15v15H65zM45 33h15v15H45zM25 53h15v15H25zM5 73h15v15H5zM82.536 7l3.535 3.536-3.534 3.536L79 10.536zM62.536 27l3.535 3.536-3.534 3.536L59 30.536zM42.536 47l3.535 3.536-3.534 3.536L39 50.536zM22.536 67l3.535 3.536-3.534 3.536L19 70.536zM85 0h15v8H85zM2.536 67l3.535 3.536-3.534 3.535L.01 71.546.004 69.53M125 0h15v8h-15zM145 13h15v15h-15zM165 33h15v15h-15zM185 53h15v15h-15zM142.536 7l3.535 3.536-3.534 3.536L139 10.536zM200.035 71.57L199 70.534l1.035-1.035M162.536 27l3.535 3.536-3.534 3.536L159 30.536zM182.536 47l3.535 3.536-3.534 3.536L179 50.536zM85 193h15v7H85zM65 173h15v15H65zM45 153h15v15H45zM25 133h15v15H25zM5 113h15v15H5zM82.536 187l3.535 3.536-3.534 3.536L79 190.536zM62.536 167l3.535 3.536-3.534 3.536L59 170.536zM42.536 147l3.535 3.536-3.534 3.536L39 150.536zM22.536 127l3.535 3.536-3.534 3.536L19 130.536zM2.536 127l3.535 3.536-3.534 3.535-2.527-2.525-.005-2.014M125 193h15v7h-15zM145 173h15v15h-15zM165 153h15v15h-15zM185 133h15v15h-15zM142.536 187l3.535 3.536-3.534 3.536-3.536-3.536zM162.536 167l3.535 3.536-3.534 3.536-3.536-3.536zM182.536 147l3.535 3.536-3.534 3.536-3.536-3.536zM200.035 131.57L199 130.534l1.035-1.035"/>
    </g>
    <g id="alternateOuterMiddle">
      <path d="M65 0h15v8H65zM45 13h15v15H45zM25 33h15v15H25zM5 53h15v15H5zM62.536 7l3.535 3.536-3.534 3.536L59 10.536zM42.536 27l3.535 3.536-3.534 3.536L39 30.536zM22.536 47l3.535 3.536-3.534 3.536L19 50.536zM145 0h15v8h-15zM165 13h15v15h-15zM185 33h15v15h-15zM162.536 7l3.535 3.536-3.534 3.536L159 10.536zM200.035 51.57L199 50.534l1.035-1.035M182.536 27l3.535 3.536-3.534 3.536L179 30.536zM65 193h15v7H65zM45 173h15v15H45zM25 153h15v15H25zM5 133h15v15H5zM62.536 187l3.535 3.536-3.534 3.536L59 190.536zM42.536 167l3.535 3.536-3.534 3.536L39 170.536zM22.536 147l3.535 3.536-3.534 3.536L19 150.536zM145 193h15v7h-15zM165 173h15v15h-15zM185 153h15v15h-15zM162.536 187l3.535 3.536-3.534 3.536-3.536-3.536zM182.536 167l3.535 3.536-3.534 3.536-3.536-3.536zM200.035 151.57L199 150.534l1.035-1.035M2.536 147l3.535 3.536-3.534 3.535-2.527-2.525-.005-2.014M2.536 47l3.535 3.536-3.534 3.535L.01 51.546.004 49.53"/>
    </g>
    <g id="alternateInnerMiddle">
      <path d="M45 193h15v7H45zM25 173h15v15H25zM5 153h15v15H5zM42.536 187l3.535 3.536-3.534 3.536L39 190.536zM22.536 167l3.535 3.536-3.534 3.536L19 170.536zM165 0h15v8h-15zM45 0h15v8H45zM25 13h15v15H25zM5 33h15v15H5zM42.536 7l3.535 3.536-3.534 3.536L39 10.536zM22.536 27l3.535 3.536-3.534 3.536L19 30.536zM185 13h15v15h-15zM182.536 7l3.535 3.536-3.534 3.536L179 10.536zM200.035 31.57L199 30.534l1.035-1.035M165 193h15v7h-15zM185 173h15v15h-15zM182.536 187l3.535 3.536-3.534 3.536-3.536-3.536zM200.035 171.57L199 170.534l1.035-1.035M2.536 167l3.535 3.536-3.534 3.535-2.527-2.525-.005-2.014M2.536 27l3.535 3.536-3.534 3.535L.01 31.546.004 29.53"/>
    </g>
  </g>
</svg>
