<svg
  version="1.1"
  xmlns="http://www.w3.org/2000/svg"
  xmlns:xlink="http://www.w3.org/1999/xlink"
>
  <title>Star</title>
  <defs>
    <pattern
      id="stars"
      width="128"
      height="128"
      patternUnits="userSpaceOnUse"
    >
      <path
        stroke-width="4"
        stroke="#545654"
        fill="#363836"
        d="M64,1.06749647 L82.2860569,19.3535534 L82.4325035,19.5 L82.6396103,19.5 L108.5,19.5 L108.5,45.3603897 L108.5,45.5674965 L108.646447,45.7139431 L126.932504,64 L108.646447,82.2860569 L108.5,82.4325035 L108.5,82.6396103 L108.5,108.5 L82.6396103,108.5 L82.4325035,108.5 L82.2860569,108.646447 L64,126.932504 L45.7139431,108.646447 L45.5674965,108.5 L45.3603897,108.5 L19.5,108.5 L19.5,82.6396103 L19.5,82.4325035 L19.3535534,82.2860569 L1.06749647,64 L19.3535534,45.7139431 L19.5,45.5674965 L19.5,45.3603897 L19.5,19.5 L45.3603897,19.5 L45.5674965,19.5 L45.7139431,19.3535534 L64,1.06749647 Z" />
    </pattern>
  </defs>
  <rect x="0" y="0" width="100%" height="100%" fill="url(#stars)" />
</svg>
